<svg xmlns="http://www.w3.org/2000/svg" xmlns:svg="http://www.w3.org/2000/svg" id="svg8" width="100mm" height="100mm" version="1.1" viewBox="0 0 100 100"><metadata id="metadata5"/><g id="layer1" transform="translate(-18.334148,-102.68768)"><rect style="fill:#0066ae;stroke-width:.7;stroke-miterlimit:4;stroke-dasharray:none;fill-opacity:1" id="rect2764" width="100" height="100" x="18.334" y="102.688"/><path style="fill:none;stroke:#000;stroke-width:.7;stroke-linecap:butt;stroke-linejoin:miter;stroke-opacity:1;stroke-miterlimit:4;stroke-dasharray:none" id="path1935" d="m 18.334408,188.70818 100.000002,-0.008"/><path style="fill:#292525;fill-opacity:.923387;stroke:#000;stroke-width:.264583px;stroke-linecap:butt;stroke-linejoin:miter;stroke-opacity:1" id="path2762" d="m 90.697372,188.54802 -5.879929,-13.8312 5.158942,-27.14173 -1.751255,-21.83542 -7.684002,-5.14494 1.269531,-7.3499 -3.674955,-2.80633 -20.847023,2.13817 -5.946746,21.04748 -2.539062,42.6963 8.552625,12.42804 z"/><path style="fill:#495a70;fill-opacity:.78629;stroke:#000;stroke-width:.265;stroke-linecap:butt;stroke-linejoin:miter;stroke-miterlimit:4;stroke-dasharray:none;stroke-opacity:1" id="path2760" d="m 57.355498,188.74849 -8.552625,-12.42804 2.539062,-42.6963 5.946746,-21.04748 20.847023,-2.13817 -15.56845,5.81311 -3.006782,16.97162 -1.069077,32.54006 9.755337,22.98518 z"/><path style="fill:#393232;fill-opacity:.923387;stroke:#000;stroke-width:.264583px;stroke-linecap:butt;stroke-linejoin:miter;stroke-opacity:1" id="path2768" d="m 70.251253,188.68165 0.810026,-19.38854 0.252181,-14.35195 -5.702946,-9.46346 4.020246,-14.38323 0.774456,-17.51544 7.730488,-3.14053 -15.56845,5.81311 -3.006782,16.97162 c 0,0 -1.336348,32.20597 -1.069079,32.54006 0.267271,0.33408 9.528253,22.58868 9.795522,23.0564 0.267269,0.46772 1.964338,-0.13804 1.964338,-0.13804 z"/><path style="fill:#281c1c;fill-opacity:.274194;stroke:#000;stroke-width:.264583px;stroke-linecap:butt;stroke-linejoin:miter;stroke-opacity:1" id="path2770" d="m 71.31346,154.94116 -1.062207,33.74049 9.792087,0.026 3.86363,-48.50943 -10.119034,-0.70073 2.74188,-19.77143 5.280843,-6.48123 -3.674955,-2.80633 -7.730488,3.14053 -0.774456,17.51548 -4.020246,14.38323 z"/><rect style="fill:#000;fill-opacity:1;stroke-width:.275002;stroke-miterlimit:4;stroke-dasharray:none" id="rect2772" width="100" height="14" x="18.334" y="188.708"/></g></svg>